# xmcd
#
# Track frame offsets: 
#        150
#        10439
#        23886
#        41103
#        55752
#        68251
#        81106
#        96143
#        109949
#        123458
#        128194
#        131441
#        135172
#        146717
#        162083
#        171431
#        179550
#
# Disc length: 2676 seconds
#
# Revision: 0
# Processed by: cddbd v1.5.2PL0 Copyright (c) Steve Scherf et al.
# Submitted via: ExactAudioCopy v0.99pb5
#
DISCID=e80a7211
DTITLE=Large Professor - Main Source
DYEAR=2008
DGENRE=Rap
TTITLE0=The Entrance
TTITLE1=Hot: Sizzling, Scorching, Torching, Blazing
TTITLE2='Maica Living' feat. Guardean Leep and Killa Sha
TTITLE3=Pump Ya Fist Like This feat. Mikey D and Lotto
TTITLE4=Party Time
TTITLE5=In The Ghetto
TTITLE6=Hardcore Hip-Hop
TTITLE7=Frantic Barz
TTITLE8=Sewin' Love
TTITLE9=RuDopeDapnNoyd Pt. 1 feat. Jeru Tha Damaja
TTITLE10=RuDopeDapnNoyd Pt. 2 feat. Lil' Dap
TTITLE11=RuDopeDapnNoyd Pt. 3 feat. Big Noyd
TTITLE12=Classic Emergency
TTITLE13=Rockin' Hip-Hop
TTITLE14=Large Pro Says
TTITLE15=To The Meadows
TTITLE16=The Hardest feat. AZ and Styles P
EXTD=
EXTT0=
EXTT1=
EXTT2=
EXTT3=
EXTT4=
EXTT5=
EXTT6=
EXTT7=
EXTT8=
EXTT9=
EXTT10=
EXTT11=
EXTT12=
EXTT13=
EXTT14=
EXTT15=
EXTT16=
PLAYORDER=
